<?xml version="1.0" standalone="no"?><!DOCTYPE svg PUBLIC "-//W3C//DTD SVG 1.1//EN" "http://www.w3.org/Graphics/SVG/1.1/DTD/svg11.dtd"><svg t="1553405904504" class="icon" style="" viewBox="0 0 1024 1024" version="1.1" xmlns="http://www.w3.org/2000/svg" p-id="2385" xmlns:xlink="http://www.w3.org/1999/xlink" width="200" height="200"><defs><style type="text/css"></style></defs><path d="M51.2 56.32h921.6c28.27776 0 51.2 22.92224 51.2 51.2s-22.92224 51.2-51.2 51.2H51.2C22.92224 158.72 0 135.79776 0 107.52s22.92224-51.2 51.2-51.2z m0 399.36h921.6c28.27776 0 51.2 22.92224 51.2 51.2s-22.92224 51.2-51.2 51.2H51.2c-28.27776 0-51.2-22.92224-51.2-51.2s22.92224-51.2 51.2-51.2z m0 399.36h921.6c28.27776 0 51.2 22.92224 51.2 51.2s-22.92224 51.2-51.2 51.2H51.2c-28.27776 0-51.2-22.92224-51.2-51.2s22.92224-51.2 51.2-51.2z" fill="#e6e6e6" p-id="2386"></path></svg>