<?xml version="1.0" standalone="no"?><!DOCTYPE svg PUBLIC "-//W3C//DTD SVG 1.1//EN" "http://www.w3.org/Graphics/SVG/1.1/DTD/svg11.dtd"><svg t="1553155153891" class="icon" style="" viewBox="0 0 1024 1024" version="1.1" xmlns="http://www.w3.org/2000/svg" p-id="5658" xmlns:xlink="http://www.w3.org/1999/xlink" width="200" height="200"><defs><style type="text/css"></style></defs><path d="M860.8 448h-9.6c3.2-19.2 6.4-41.6 6.4-64C857.6 195.2 704 48 512 48S166.4 195.2 166.4 384c0 22.4 3.2 41.6 6.4 64H160c-54.4 0-96 41.6-96 96v320c0 54.4 41.6 96 96 96h700.8c54.4 0 96-41.6 96-96V544c0-54.4-41.6-96-96-96z m-640-3.2c-3.2-19.2-6.4-38.4-6.4-60.8 0-163.2 131.2-288 294.4-288s294.4 128 294.4 288c0 22.4-3.2 44.8-6.4 64H224l-3.2-3.2z m688 419.2c0 25.6-22.4 48-48 48H160c-25.6 0-48-22.4-48-48V544c0-25.6 22.4-48 48-48h697.6c25.6 0 48 22.4 48 48v320z" fill="#e6e6e6" p-id="5659"></path><path d="M512 592c-12.8 0-25.6 9.6-25.6 25.6v195.2c0 12.8 9.6 25.6 25.6 25.6s25.6-9.6 25.6-25.6V617.6c0-12.8-12.8-25.6-25.6-25.6z" fill="#e6e6e6" p-id="5660"></path></svg>