<?xml version="1.0" standalone="no"?><!DOCTYPE svg PUBLIC "-//W3C//DTD SVG 1.1//EN" "http://www.w3.org/Graphics/SVG/1.1/DTD/svg11.dtd"><svg t="1553155172622" class="icon" style="" viewBox="0 0 1024 1024" version="1.1" xmlns="http://www.w3.org/2000/svg" p-id="5992" xmlns:xlink="http://www.w3.org/1999/xlink" width="200" height="200"><defs><style type="text/css"></style></defs><path d="M728.118989 1010.749509 294.99432 1010.749509c-47.854537 0-86.634178-38.779641-86.634178-86.637827L208.360142 101.096115c0-47.854537 38.779641-86.634178 86.634178-86.634178l433.181836 0c47.859402 0 86.634178 38.779641 86.634178 86.634178l0 823.014351C814.753167 971.969868 775.973526 1010.749509 728.118989 1010.749509L728.118989 1010.749509zM771.464662 101.096115c0-23.899293-19.389212-43.288506-43.288506-43.288506L294.99432 57.807609c-23.899293 0-43.288506 19.389212-43.288506 43.288506l0 64.963166 519.816014 0 0-64.963166L771.464662 101.096115zM771.464662 209.409818 251.648648 209.409818l0 498.140137 519.816014 0L771.464662 209.409818 771.464662 209.409818zM771.464662 750.838461 251.648648 750.838461l0 173.272005c0 23.898077 19.389212 43.288506 43.288506 43.288506l433.181836 0c23.898077 0 43.288506-19.389212 43.288506-43.288506L771.407495 750.838461 771.464662 750.838461zM511.558479 924.110466c-35.909147 0-64.963166-29.111186-64.963166-64.963166 0-35.905498 29.111186-64.963166 64.963166-64.963166 35.848332 0 64.959517 29.116051 64.959517 64.963166C576.517996 895.000497 547.463977 924.110466 511.558479 924.110466L511.558479 924.110466zM511.558479 924.110466" p-id="5993" fill="#e6e6e6"></path></svg>